<svg xmlns="http://www.w3.org/2000/svg" width="30.5" height="21.35" viewBox="0 0 30.5 21.35">
  <path id="Icon_awesome-car-side" data-name="Icon awesome-car-side" d="M25.925,9.875h-.762l-5.184-6.48A3.051,3.051,0,0,0,17.6,2.25H7.4A3.05,3.05,0,0,0,4.571,4.167L2.287,9.983A3.043,3.043,0,0,0,0,12.925v5.338a.762.762,0,0,0,.762.762H3.05a4.575,4.575,0,1,0,9.15,0h6.1a4.575,4.575,0,1,0,9.15,0h2.288a.762.762,0,0,0,.763-.762V14.45A4.575,4.575,0,0,0,25.925,9.875ZM7.625,21.313a2.288,2.288,0,1,1,2.287-2.288A2.29,2.29,0,0,1,7.625,21.313ZM11.056,9.875H5.572L7.4,5.3h3.654Zm2.288,0V5.3H17.6l3.66,4.575Zm9.531,11.438a2.288,2.288,0,1,1,2.288-2.288A2.29,2.29,0,0,1,22.875,21.313Z" transform="translate(0 -2.25)" fill="#3f3d56"/>
</svg>
