<?xml version="1.0" encoding="UTF-8" standalone="no"?>
<svg
   xmlns:dc="http://purl.org/dc/elements/1.1/"
   xmlns:cc="http://creativecommons.org/ns#"
   xmlns:rdf="http://www.w3.org/1999/02/22-rdf-syntax-ns#"
   xmlns:svg="http://www.w3.org/2000/svg"
   xmlns="http://www.w3.org/2000/svg"
   xmlns:sodipodi="http://sodipodi.sourceforge.net/DTD/sodipodi-0.dtd"
   xmlns:inkscape="http://www.inkscape.org/namespaces/inkscape"
   version="1.1"
   id="svg2"
   xml:space="preserve"
   width="675.18665"
   height="165.18668"
   viewBox="0 0 675.18665 165.18668"
   sodipodi:docname="1Car Loan Sales Logo.eps"><metadata
     id="metadata8"><rdf:RDF><cc:Work
         rdf:about=""><dc:format>image/svg+xml</dc:format><dc:type
           rdf:resource="http://purl.org/dc/dcmitype/StillImage" /></cc:Work></rdf:RDF></metadata><defs
     id="defs6"><clipPath
       clipPathUnits="userSpaceOnUse"
       id="clipPath56"><path
         d="M 0,0 H 5063.89 V 1238.87 H 0 Z"
         id="path54" /></clipPath><clipPath
       clipPathUnits="userSpaceOnUse"
       id="clipPath62"><path
         d="m 2795.98,1386.39 h 933.67 V -60.0391 h -933.67 z"
         clip-rule="evenodd"
         id="path60" /></clipPath><clipPath
       clipPathUnits="userSpaceOnUse"
       id="clipPath68"><path
         d="M 3023.97,1238.87 V 0 h 3198.88 v 1238.87 z"
         id="path66" /></clipPath></defs><sodipodi:namedview
     pagecolor="#ffffff"
     bordercolor="#666666"
     borderopacity="1"
     objecttolerance="10"
     gridtolerance="10"
     guidetolerance="10"
     inkscape:pageopacity="0"
     inkscape:pageshadow="2"
     inkscape:window-width="640"
     inkscape:window-height="480"
     id="namedview4" /><g
     id="g10"
     inkscape:groupmode="layer"
     inkscape:label="ink_ext_XXXXXX"
     transform="matrix(1.3333333,0,0,-1.3333333,0,165.18667)"><g
       id="g12"
       transform="scale(0.1)"><path
         d="m 359.746,673.781 c -13.84,28.489 -46.391,84.649 -126.969,84.649 -109.062,0 -148.1286,-91.157 -148.1286,-159.528 0,-78.132 49.6486,-160.336 146.4996,-160.336 63.485,0 106.622,36.625 127.782,83.02 h 94.414 C 419.16,421.473 331.262,361.242 231.148,361.242 83.0195,361.242 0,482.516 0,598.902 0,720.988 89.5313,835.75 231.965,835.75 c 127.781,0 204.289,-95.227 221.379,-161.969 h -93.598"
         style="fill:#21376c;fill-opacity:1;fill-rule:nonzero;stroke:none"
         id="path14" /><path
         d="m 726.824,758.43 c -104.179,0 -154.636,-90.34 -154.636,-161.153 0,-81.39 64.296,-158.711 153.828,-158.711 88.711,0 157.082,72.438 157.082,158.711 0,96.039 -69.18,161.153 -156.274,161.153 z M 881.469,372.641 v 69.996 h -1.625 c -32.559,-55.348 -91.973,-81.395 -153.02,-81.395 -152.195,0 -239.285,116.395 -239.285,235.223 0,109.875 77.32,239.285 239.285,239.285 62.672,0 120.461,-26.047 153.02,-75.691 h 1.625 v 63.484 h 84.644 V 372.641 h -84.644"
         style="fill:#21376c;fill-opacity:1;fill-rule:nonzero;stroke:none"
         id="path16" /><path
         d="m 1052.74,372.641 v 450.902 h 78.95 v -40.699 h 1.63 c 35.81,50.465 93.6,52.09 114.76,52.906 v -87.086 c -13.02,0 -40.69,-5.695 -61.04,-16.277 -26.86,-14.649 -49.65,-48.832 -49.65,-113.137 V 372.641 h -84.65"
         style="fill:#21376c;fill-opacity:1;fill-rule:nonzero;stroke:none"
         id="path18" /><path
         d="m 1391.33,372.641 h -84.65 V 974.93 h 84.65 V 372.641"
         style="fill:#21376c;fill-opacity:1;fill-rule:nonzero;stroke:none"
         id="path20" /><path
         d="m 1697.27,758.43 c -95.23,0 -158.72,-78.95 -158.72,-159.528 0,-81.39 64.3,-160.336 158.72,-160.336 91.15,0 158.71,75.696 158.71,161.153 0,79.761 -63.49,158.711 -158.71,158.711 z m 0,-397.188 c -151.39,0 -243.36,126.156 -243.36,240.106 0,122.898 103.36,234.402 243.36,234.402 136.73,0 243.35,-107.437 243.35,-236.031 0,-109.875 -90.34,-238.477 -243.35,-238.477"
         style="fill:#21376c;fill-opacity:1;fill-rule:nonzero;stroke:none"
         id="path22" /><path
         d="m 2237.7,758.43 c -104.18,0 -154.64,-90.34 -154.64,-161.153 0,-81.39 64.29,-158.711 153.82,-158.711 88.72,0 157.08,72.438 157.08,158.711 0,96.039 -69.17,161.153 -156.26,161.153 z m 154.64,-385.789 v 69.996 h -1.63 c -32.56,-55.348 -91.97,-81.395 -153.01,-81.395 -152.2,0 -239.29,116.395 -239.29,235.223 0,109.875 77.32,239.285 239.29,239.285 62.67,0 120.45,-26.047 153.01,-75.691 h 1.63 v 63.484 h 84.64 V 372.641 h -84.64"
         style="fill:#21376c;fill-opacity:1;fill-rule:nonzero;stroke:none"
         id="path24" /><path
         d="m 2869.6,372.641 v 244.984 c 0,34.996 0,140.805 -112.31,140.805 -70.82,0 -118.84,-49.649 -118.84,-139.989 v -245.8 h -84.65 v 450.902 h 78.95 V 775.52 h 1.63 c 45.58,60.23 113.95,60.23 131.85,60.23 70,0 126.97,-30.113 159.53,-80.574 17.9,-29.305 27.67,-65.113 28.49,-115.574 V 372.641 h -84.65"
         style="fill:#21376c;fill-opacity:1;fill-rule:nonzero;stroke:none"
         id="path26" /><path
         d="m 3821.87,758.43 c -104.18,0 -154.64,-90.34 -154.64,-161.153 0,-81.39 64.29,-158.711 153.82,-158.711 88.72,0 157.08,72.438 157.08,158.711 0,96.039 -69.17,161.153 -156.26,161.153 z M 3976.5,372.641 v 69.996 h -1.62 c -32.56,-55.348 -91.97,-81.395 -153.01,-81.395 -152.2,0 -239.29,116.395 -239.29,235.223 0,109.875 77.32,239.285 239.29,239.285 62.67,0 120.45,-26.047 153.01,-75.691 h 1.62 v 63.484 h 84.65 V 372.641 h -84.65"
         style="fill:#7a79a5;fill-opacity:1;fill-rule:nonzero;stroke:none"
         id="path28" /><path
         d="m 4223.13,372.641 h -84.65 V 974.93 h 84.65 V 372.641"
         style="fill:#7a79a5;fill-opacity:1;fill-rule:nonzero;stroke:none"
         id="path30" /><path
         d="m 4653.67,626.574 c -4.07,65.93 -64.29,131.856 -145.68,131.856 -81.4,0 -141.62,-65.926 -145.7,-131.856 z m -291.38,-65.105 c 21.17,-87.09 91.17,-122.903 148.14,-122.903 62.67,0 108.24,36.625 128.59,75.696 h 84.65 c -43.13,-116.395 -146.5,-153.02 -216.5,-153.02 -127.79,0 -229.52,109.879 -229.52,237.66 0,135.11 104.18,236.848 231.15,236.848 122.09,0 228.71,-99.297 229.52,-231.148 0,-14.649 -1.63,-37.442 -2.44,-43.133 h -373.59"
         style="fill:#7a79a5;fill-opacity:1;fill-rule:nonzero;stroke:none"
         id="path32" /><path
         d="m 4968.66,703.898 c -4.88,36.625 -26.85,54.532 -57.78,54.532 -30.93,0 -52.91,-19.535 -52.91,-48.024 0,-37.433 32.56,-47.207 70,-58.597 35,-10.582 135.92,-39.067 135.92,-146.504 0,-79.758 -55.35,-144.063 -151.39,-144.063 -56.97,0 -159.52,35.817 -159.52,159.528 h 84.65 c 3.25,-50.465 29.29,-82.204 76.5,-82.204 38.25,0 65.11,23.606 65.11,61.856 0,39.883 -34.99,53.719 -78.95,69.18 -48.83,17.91 -126.97,39.882 -126.97,135.921 0,66.747 56.16,130.227 141.62,130.227 51.28,0 135.93,-31.742 138.37,-131.852 h -84.65"
         style="fill:#7a79a5;fill-opacity:1;fill-rule:nonzero;stroke:none"
         id="path34" /><path
         d="m 4098.58,156.469 v 26.922 h 22.94 v -26.922 h -22.94"
         style="fill:#21376c;fill-opacity:1;fill-rule:nonzero;stroke:none"
         id="path36" /><path
         d="m 4245.1,238.102 c -3.75,7.726 -12.58,22.953 -34.43,22.953 -29.56,0 -40.15,-24.715 -40.15,-43.246 0,-21.188 13.46,-43.469 39.71,-43.469 17.22,0 28.91,9.93 34.64,22.5 h 25.6 c -9.27,-27.141 -33.1,-43.461 -60.24,-43.461 -40.15,0 -62.65,32.871 -62.65,64.43 0,33.093 24.27,64.207 62.88,64.207 34.64,0 55.38,-25.817 60.01,-43.914 h -25.37"
         style="fill:#21376c;fill-opacity:1;fill-rule:nonzero;stroke:none"
         id="path38" /><path
         d="m 4350.58,261.055 c -25.81,0 -43.03,-21.403 -43.03,-43.246 0,-22.071 17.43,-43.469 43.03,-43.469 24.71,0 43.02,20.519 43.02,43.691 0,21.621 -17.2,43.024 -43.02,43.024 z m 0,-107.676 c -41.04,0 -65.97,34.199 -65.97,65.09 0,33.316 28.02,63.547 65.97,63.547 37.07,0 65.97,-29.125 65.97,-63.985 0,-29.793 -24.49,-64.652 -65.97,-64.652"
         style="fill:#21376c;fill-opacity:1;fill-rule:nonzero;stroke:none"
         id="path40" /><path
         d="m 4600.59,156.469 v 67.961 c 0,10.371 -1.33,36.625 -28.91,36.625 -29.35,0 -28.91,-26.254 -29.13,-36.407 v -68.179 h -22.94 v 67.961 c 0.21,10.14 -0.23,16.984 -5.08,25.148 -5.73,8.828 -14.34,11.477 -22.72,11.477 -30.23,0 -30.23,-27.364 -30.23,-36.407 v -68.179 h -22.95 v 122.234 h 21.18 v -13.234 h 0.44 c 4.42,5.07 12.36,16.547 35.08,16.547 14.79,0 31.78,-7.063 37.96,-20.524 3.97,6.176 13.02,20.524 40.37,20.524 20.52,0 35.09,-8.383 43.03,-22.067 4.41,-7.945 6.84,-17.871 6.84,-29.789 v -73.691 h -22.94"
         style="fill:#21376c;fill-opacity:1;fill-rule:nonzero;stroke:none"
         id="path42" /><path
         d="m 4655.99,156.469 v 26.922 h 22.94 v -26.922 h -22.94"
         style="fill:#21376c;fill-opacity:1;fill-rule:nonzero;stroke:none"
         id="path44" /><path
         d="m 4769.84,261.055 c -28.24,0 -41.92,-24.496 -41.92,-43.684 0,-22.07 17.43,-43.031 41.71,-43.031 24.04,0 42.58,19.64 42.58,43.031 0,26.031 -18.75,43.684 -42.37,43.684 z m 41.93,-104.586 v 18.972 h -0.44 c -8.83,-15 -24.93,-22.062 -41.49,-22.062 -41.26,0 -64.86,31.551 -64.86,63.769 0,29.786 20.96,64.868 64.86,64.868 17,0 32.66,-7.063 41.49,-20.524 h 0.44 v 17.211 h 22.95 V 156.469 h -22.95"
         style="fill:#21376c;fill-opacity:1;fill-rule:nonzero;stroke:none"
         id="path46" /><path
         d="m 4885.7,278.703 v -66.191 c 0,-30.231 13.46,-38.172 30.45,-38.172 18.98,0 31.99,12.14 31.99,38.832 v 65.531 h 22.95 V 156.469 h -20.96 v 13.23 h -0.44 c -6.18,-10.59 -20.52,-16.32 -35.97,-16.32 -13.9,0 -26.03,4.41 -34.85,12.141 -10.16,8.82 -16.12,22.5 -16.12,46.992 v 66.191 h 22.95"
         style="fill:#21376c;fill-opacity:1;fill-rule:nonzero;stroke:none"
         id="path48" /><g
         id="g50"><g
           id="g52"
           clip-path="url(#clipPath56)"><g
             id="g58"
             clip-path="url(#clipPath62)"><g
               id="g64"
               clip-path="url(#clipPath68)"><path
                 d="m 3391.06,310.563 c -66.16,-42.684 -140.32,-66.688 -216.62,-61.887 -46.94,4.265 -91.23,21.875 -132.31,43.75 -9.07,32.012 -16.53,62.953 -18.14,97.101 -0.53,14.407 12.27,25.075 26.68,26.676 18.68,-2.133 34.68,-9.07 51.75,-12.808 17.07,-5.868 34.15,-11.739 52.82,-13.868 79.5,-4.269 210.21,11.203 223.01,115.774 2.68,9.07 4.81,17.074 5.34,26.14 l -0.53,8.543 -4.81,2.664 c -27.21,-1.601 -55.48,-2.664 -82.69,-4.8 -27.21,-1.602 -54.95,-2.664 -82.16,-2.664 -51.22,1.597 -105.65,9.066 -144.59,42.148 -28.27,22.938 -38.95,60.82 -38.95,97.633 0,12.269 1.07,24.547 2.67,36.816 6.93,73.09 45.35,142.449 100.84,195.805 51.75,53.887 122.7,90.168 195.8,88.562 91.23,1.606 188.34,-42.144 213.95,-132.847 3.74,-8 4.8,-16.535 4.8,-24.543 2.67,-25.606 -27.74,-33.074 -46.42,-30.41 -25.61,3.734 -49.62,10.136 -71.49,20.273 -21.88,10.137 -46.42,16.543 -71.49,19.207 -37.89,0.535 -76.83,-10.137 -109.38,-30.945 -32.55,-19.738 -62.42,-53.352 -64.02,-91.231 -2.67,-19.211 9.61,-42.683 32.01,-38.418 22.94,0 45.35,5.336 67.23,9.075 24.01,3.734 45.35,9.07 68.29,8.535 55.48,0.535 109.91,-21.34 141.38,-64.559 30.95,-41.078 35.22,-96.035 30.95,-147.789 -10.14,-77.359 -69.36,-140.316 -133.92,-181.933 v 0"
                 style="fill:#7a79a5;fill-opacity:1;fill-rule:nonzero;stroke:none"
                 id="path70" /><path
                 d="m 3237.63,32.3008 186.33,42.6797 C 3381.3,189.469 3293.75,820.27 3448.65,1159.26 l -51.63,31.44 C 3320.69,1121.06 3087.23,795.516 3237.63,32.3008 v 0"
                 style="fill:#231f20;fill-opacity:1;fill-rule:nonzero;stroke:none"
                 id="path72" /><path
                 d="M 3320.69,36.7891 C 3290.21,209.91 3206.2,797.801 3406.01,1145.76"
                 style="fill:none;stroke:#ffffff;stroke-width:22.764;stroke-linecap:butt;stroke-linejoin:miter;stroke-miterlimit:10;stroke-dasharray:72.319, 48.2107;stroke-dashoffset:72.2757;stroke-opacity:1"
                 id="path74" /></g></g></g></g></g></g></svg>
