<?xml version="1.0" encoding="UTF-8"?>
<svg xmlns="http://www.w3.org/2000/svg" xmlns:xlink="http://www.w3.org/1999/xlink" width="205pt" height="52pt" viewBox="0 0 205 52" version="1.1">
<defs>
<clipPath id="clip1">
  <path d="M 122.453125 10 L 144 10 L 144 42 L 122.453125 42 Z M 122.453125 10 "/>
</clipPath>
<clipPath id="clip2">
  <path d="M 122.453125 0 L 151 0 L 151 52 L 122.453125 52 Z M 122.453125 0 "/>
</clipPath>
</defs>
<g id="surface1">
<path style=" stroke:none;fill-rule:nonzero;fill:rgb(12.941176%,21.568627%,42.352941%);fill-opacity:1;" d="M 14.566406 23.746094 C 14.007812 22.550781 12.6875 20.1875 9.425781 20.1875 C 5.007812 20.1875 3.429688 24.019531 3.429688 26.894531 C 3.429688 30.175781 5.4375 33.628906 9.359375 33.628906 C 11.929688 33.628906 13.675781 32.089844 14.535156 30.140625 L 18.359375 30.140625 C 16.972656 34.347656 13.414062 36.878906 9.359375 36.878906 C 3.363281 36.878906 0 31.785156 0 26.894531 C 0 21.761719 3.625 16.941406 9.394531 16.941406 C 14.566406 16.941406 17.664062 20.941406 18.359375 23.746094 Z M 14.566406 23.746094 "/>
<path style=" stroke:none;fill-rule:nonzero;fill:rgb(12.941176%,21.568627%,42.352941%);fill-opacity:1;" d="M 29.433594 20.1875 C 25.214844 20.1875 23.171875 23.984375 23.171875 26.960938 C 23.171875 30.382812 25.773438 33.628906 29.398438 33.628906 C 32.992188 33.628906 35.761719 30.585938 35.761719 26.960938 C 35.761719 22.925781 32.957031 20.1875 29.433594 20.1875 Z M 35.695312 36.398438 L 35.695312 33.460938 L 35.628906 33.460938 C 34.308594 35.785156 31.902344 36.878906 29.433594 36.878906 C 23.269531 36.878906 19.742188 31.988281 19.742188 26.996094 C 19.742188 22.378906 22.875 16.941406 29.433594 16.941406 C 31.96875 16.941406 34.308594 18.035156 35.628906 20.121094 L 35.695312 20.121094 L 35.695312 17.453125 L 39.121094 17.453125 L 39.121094 36.398438 Z M 35.695312 36.398438 "/>
<path style=" stroke:none;fill-rule:nonzero;fill:rgb(12.941176%,21.568627%,42.352941%);fill-opacity:1;" d="M 42.628906 36.398438 L 42.628906 17.453125 L 45.828125 17.453125 L 45.828125 19.164062 L 45.890625 19.164062 C 47.34375 17.042969 49.683594 16.976562 50.539062 16.941406 L 50.539062 20.601562 C 50.011719 20.601562 48.890625 20.839844 48.066406 21.285156 C 46.980469 21.898438 46.058594 23.335938 46.058594 26.039062 L 46.058594 36.398438 Z M 42.628906 36.398438 "/>
<path style=" stroke:none;fill-rule:nonzero;fill:rgb(12.941176%,21.568627%,42.352941%);fill-opacity:1;" d="M 56.339844 36.398438 L 52.914062 36.398438 L 52.914062 11.09375 L 56.339844 11.09375 Z M 56.339844 36.398438 "/>
<path style=" stroke:none;fill-rule:nonzero;fill:rgb(12.941176%,21.568627%,42.352941%);fill-opacity:1;" d="M 68.730469 20.1875 C 64.871094 20.1875 62.300781 23.507812 62.300781 26.894531 C 62.300781 30.3125 64.90625 33.628906 68.730469 33.628906 C 72.421875 33.628906 75.15625 30.449219 75.15625 26.859375 C 75.15625 23.507812 72.585938 20.1875 68.730469 20.1875 Z M 68.730469 36.878906 C 62.597656 36.878906 58.875 31.578125 58.875 26.789062 C 58.875 21.625 63.058594 16.941406 68.730469 16.941406 C 74.265625 16.941406 78.582031 21.453125 78.582031 26.859375 C 78.582031 31.476562 74.925781 36.878906 68.730469 36.878906 "/>
<path style=" stroke:none;fill-rule:nonzero;fill:rgb(12.941176%,21.568627%,42.352941%);fill-opacity:1;" d="M 90.613281 20.1875 C 86.394531 20.1875 84.351562 23.984375 84.351562 26.960938 C 84.351562 30.382812 86.953125 33.628906 90.578125 33.628906 C 94.171875 33.628906 96.941406 30.585938 96.941406 26.960938 C 96.941406 22.925781 94.140625 20.1875 90.613281 20.1875 Z M 96.875 36.398438 L 96.875 33.460938 L 96.808594 33.460938 C 95.492188 35.785156 93.085938 36.878906 90.613281 36.878906 C 84.449219 36.878906 80.921875 31.988281 80.921875 26.996094 C 80.921875 22.378906 84.054688 16.941406 90.613281 16.941406 C 93.152344 16.941406 95.492188 18.035156 96.808594 20.121094 L 96.875 20.121094 L 96.875 17.453125 L 100.300781 17.453125 L 100.300781 36.398438 Z M 96.875 36.398438 "/>
<path style=" stroke:none;fill-rule:nonzero;fill:rgb(12.941176%,21.568627%,42.352941%);fill-opacity:1;" d="M 116.199219 36.398438 L 116.199219 26.105469 C 116.199219 24.636719 116.199219 20.1875 111.652344 20.1875 C 108.785156 20.1875 106.839844 22.277344 106.839844 26.070312 L 106.839844 36.398438 L 103.414062 36.398438 L 103.414062 17.453125 L 106.609375 17.453125 L 106.609375 19.472656 L 106.675781 19.472656 C 108.523438 16.941406 111.289062 16.941406 112.015625 16.941406 C 114.851562 16.941406 117.15625 18.207031 118.476562 20.328125 C 119.199219 21.558594 119.59375 23.0625 119.628906 25.183594 L 119.628906 36.398438 Z M 116.199219 36.398438 "/>
<path style=" stroke:none;fill-rule:nonzero;fill:rgb(47.843137%,47.45098%,64.705882%);fill-opacity:1;" d="M 154.761719 20.1875 C 150.542969 20.1875 148.5 23.984375 148.5 26.960938 C 148.5 30.382812 151.105469 33.628906 154.730469 33.628906 C 158.320312 33.628906 161.089844 30.585938 161.089844 26.960938 C 161.089844 22.925781 158.289062 20.1875 154.761719 20.1875 Z M 161.023438 36.398438 L 161.023438 33.460938 L 160.957031 33.460938 C 159.640625 35.785156 157.234375 36.878906 154.761719 36.878906 C 148.597656 36.878906 145.074219 31.988281 145.074219 26.996094 C 145.074219 22.378906 148.203125 16.941406 154.761719 16.941406 C 157.300781 16.941406 159.640625 18.035156 160.957031 20.121094 L 161.023438 20.121094 L 161.023438 17.453125 L 164.453125 17.453125 L 164.453125 36.398438 Z M 161.023438 36.398438 "/>
<path style=" stroke:none;fill-rule:nonzero;fill:rgb(47.843137%,47.45098%,64.705882%);fill-opacity:1;" d="M 171.011719 36.398438 L 167.582031 36.398438 L 167.582031 11.09375 L 171.011719 11.09375 Z M 171.011719 36.398438 "/>
<path style=" stroke:none;fill-rule:nonzero;fill:rgb(47.843137%,47.45098%,64.705882%);fill-opacity:1;" d="M 188.445312 25.730469 C 188.28125 22.960938 185.839844 20.1875 182.546875 20.1875 C 179.25 20.1875 176.8125 22.960938 176.644531 25.730469 Z M 176.644531 28.464844 C 177.503906 32.125 180.335938 33.628906 182.644531 33.628906 C 185.183594 33.628906 187.027344 32.089844 187.851562 30.449219 L 191.28125 30.449219 C 189.53125 35.339844 185.347656 36.878906 182.511719 36.878906 C 177.335938 36.878906 173.21875 32.261719 173.21875 26.894531 C 173.21875 21.214844 177.4375 16.941406 182.578125 16.941406 C 187.523438 16.941406 191.839844 21.113281 191.871094 26.652344 C 191.871094 27.269531 191.808594 28.226562 191.773438 28.464844 Z M 176.644531 28.464844 "/>
<path style=" stroke:none;fill-rule:nonzero;fill:rgb(47.843137%,47.45098%,64.705882%);fill-opacity:1;" d="M 201.199219 22.480469 C 201.003906 20.941406 200.113281 20.1875 198.859375 20.1875 C 197.609375 20.1875 196.71875 21.011719 196.71875 22.207031 C 196.71875 23.78125 198.035156 24.191406 199.550781 24.667969 C 200.96875 25.113281 205.054688 26.3125 205.054688 30.824219 C 205.054688 34.175781 202.816406 36.878906 198.925781 36.878906 C 196.617188 36.878906 192.464844 35.375 192.464844 30.175781 L 195.894531 30.175781 C 196.027344 32.296875 197.082031 33.628906 198.992188 33.628906 C 200.539062 33.628906 201.628906 32.636719 201.628906 31.03125 C 201.628906 29.355469 200.210938 28.773438 198.429688 28.125 C 196.453125 27.371094 193.289062 26.449219 193.289062 22.414062 C 193.289062 19.609375 195.5625 16.941406 199.023438 16.941406 C 201.101562 16.941406 204.527344 18.273438 204.628906 22.480469 Z M 201.199219 22.480469 "/>
<path style=" stroke:none;fill-rule:nonzero;fill:rgb(12.941176%,21.568627%,42.352941%);fill-opacity:1;" d="M 165.96875 45.484375 L 165.96875 44.351562 L 166.894531 44.351562 L 166.894531 45.484375 Z M 165.96875 45.484375 "/>
<path style=" stroke:none;fill-rule:nonzero;fill:rgb(12.941176%,21.568627%,42.352941%);fill-opacity:1;" d="M 171.898438 42.054688 C 171.75 41.730469 171.390625 41.089844 170.507812 41.089844 C 169.308594 41.089844 168.878906 42.128906 168.878906 42.90625 C 168.878906 43.796875 169.425781 44.734375 170.488281 44.734375 C 171.1875 44.734375 171.660156 44.316406 171.890625 43.789062 L 172.925781 43.789062 C 172.550781 44.929688 171.585938 45.613281 170.488281 45.613281 C 168.863281 45.613281 167.953125 44.234375 167.953125 42.90625 C 167.953125 41.515625 168.933594 40.207031 170.496094 40.207031 C 171.898438 40.207031 172.738281 41.292969 172.925781 42.054688 Z M 171.898438 42.054688 "/>
<path style=" stroke:none;fill-rule:nonzero;fill:rgb(12.941176%,21.568627%,42.352941%);fill-opacity:1;" d="M 176.171875 41.089844 C 175.125 41.089844 174.429688 41.988281 174.429688 42.90625 C 174.429688 43.832031 175.136719 44.734375 176.171875 44.734375 C 177.171875 44.734375 177.914062 43.871094 177.914062 42.898438 C 177.914062 41.988281 177.21875 41.089844 176.171875 41.089844 Z M 176.171875 45.613281 C 174.507812 45.613281 173.5 44.175781 173.5 42.878906 C 173.5 41.480469 174.636719 40.207031 176.171875 40.207031 C 177.671875 40.207031 178.84375 41.433594 178.84375 42.898438 C 178.84375 44.148438 177.851562 45.613281 176.171875 45.613281 "/>
<path style=" stroke:none;fill-rule:nonzero;fill:rgb(12.941176%,21.568627%,42.352941%);fill-opacity:1;" d="M 186.296875 45.484375 L 186.296875 42.628906 C 186.296875 42.191406 186.242188 41.089844 185.125 41.089844 C 183.9375 41.089844 183.953125 42.191406 183.945312 42.617188 L 183.945312 45.484375 L 183.015625 45.484375 L 183.015625 42.628906 C 183.023438 42.203125 183.007812 41.914062 182.8125 41.570312 C 182.578125 41.199219 182.230469 41.089844 181.890625 41.089844 C 180.667969 41.089844 180.667969 42.238281 180.667969 42.617188 L 180.667969 45.484375 L 179.738281 45.484375 L 179.738281 40.347656 L 180.59375 40.347656 L 180.59375 40.902344 L 180.613281 40.902344 C 180.792969 40.691406 181.113281 40.207031 182.03125 40.207031 C 182.632812 40.207031 183.320312 40.503906 183.570312 41.070312 C 183.730469 40.8125 184.097656 40.207031 185.203125 40.207031 C 186.035156 40.207031 186.625 40.5625 186.949219 41.136719 C 187.125 41.46875 187.222656 41.886719 187.222656 42.386719 L 187.222656 45.484375 Z M 186.296875 45.484375 "/>
<path style=" stroke:none;fill-rule:nonzero;fill:rgb(12.941176%,21.568627%,42.352941%);fill-opacity:1;" d="M 188.539062 45.484375 L 188.539062 44.351562 L 189.46875 44.351562 L 189.46875 45.484375 Z M 188.539062 45.484375 "/>
<path style=" stroke:none;fill-rule:nonzero;fill:rgb(12.941176%,21.568627%,42.352941%);fill-opacity:1;" d="M 193.148438 41.089844 C 192.003906 41.089844 191.453125 42.117188 191.453125 42.925781 C 191.453125 43.851562 192.15625 44.734375 193.140625 44.734375 C 194.113281 44.734375 194.863281 43.90625 194.863281 42.925781 C 194.863281 41.832031 194.105469 41.089844 193.148438 41.089844 Z M 194.847656 45.484375 L 194.847656 44.6875 L 194.828125 44.6875 C 194.472656 45.316406 193.820312 45.613281 193.148438 45.613281 C 191.476562 45.613281 190.523438 44.289062 190.523438 42.933594 C 190.523438 41.683594 191.371094 40.207031 193.148438 40.207031 C 193.835938 40.207031 194.472656 40.503906 194.828125 41.070312 L 194.847656 41.070312 L 194.847656 40.347656 L 195.777344 40.347656 L 195.777344 45.484375 Z M 194.847656 45.484375 "/>
<path style=" stroke:none;fill-rule:nonzero;fill:rgb(12.941176%,21.568627%,42.352941%);fill-opacity:1;" d="M 197.839844 40.347656 L 197.839844 43.128906 C 197.839844 44.398438 198.386719 44.734375 199.074219 44.734375 C 199.84375 44.734375 200.367188 44.222656 200.367188 43.101562 L 200.367188 40.347656 L 201.296875 40.347656 L 201.296875 45.484375 L 200.449219 45.484375 L 200.449219 44.929688 L 200.433594 44.929688 C 200.179688 45.371094 199.601562 45.613281 198.976562 45.613281 C 198.414062 45.613281 197.921875 45.429688 197.5625 45.105469 C 197.152344 44.734375 196.910156 44.15625 196.910156 43.128906 L 196.910156 40.347656 Z M 197.839844 40.347656 "/>
<g clip-path="url(#clip1)" clip-rule="nonzero">
<path style=" stroke:none;fill-rule:nonzero;fill:rgb(47.843137%,47.45098%,64.705882%);fill-opacity:1;" d="M 137.316406 39.007812 C 134.636719 40.800781 131.636719 41.8125 128.546875 41.609375 C 126.644531 41.429688 124.851562 40.691406 123.1875 39.769531 C 122.820312 38.425781 122.519531 37.125 122.453125 35.691406 C 122.429688 35.085938 122.949219 34.636719 123.535156 34.570312 C 124.289062 34.660156 124.9375 34.949219 125.628906 35.109375 C 126.320312 35.355469 127.011719 35.601562 127.769531 35.691406 C 130.988281 35.871094 136.28125 35.21875 136.796875 30.824219 C 136.90625 30.445312 136.992188 30.109375 137.015625 29.726562 L 136.992188 29.367188 L 136.796875 29.257812 C 135.695312 29.324219 134.550781 29.367188 133.449219 29.457031 C 132.347656 29.527344 131.226562 29.570312 130.121094 29.570312 C 128.046875 29.503906 125.84375 29.1875 124.269531 27.800781 C 123.125 26.835938 122.691406 25.242188 122.691406 23.695312 C 122.691406 23.179688 122.734375 22.664062 122.796875 22.148438 C 123.078125 19.078125 124.636719 16.164062 126.882812 13.921875 C 128.976562 11.65625 131.851562 10.132812 134.8125 10.199219 C 138.503906 10.132812 142.4375 11.972656 143.472656 15.78125 C 143.625 16.117188 143.667969 16.476562 143.667969 16.8125 C 143.777344 17.890625 142.546875 18.203125 141.789062 18.09375 C 140.753906 17.933594 139.78125 17.664062 138.894531 17.238281 C 138.007812 16.8125 137.015625 16.542969 136 16.433594 C 134.464844 16.410156 132.886719 16.859375 131.570312 17.734375 C 130.253906 18.5625 129.042969 19.976562 128.976562 21.566406 C 128.871094 22.375 129.367188 23.359375 130.273438 23.179688 C 131.203125 23.179688 132.109375 22.957031 132.996094 22.800781 C 133.96875 22.644531 134.832031 22.417969 135.761719 22.441406 C 138.007812 22.417969 140.210938 23.335938 141.488281 25.152344 C 142.738281 26.878906 142.914062 29.1875 142.738281 31.363281 C 142.328125 34.613281 139.929688 37.261719 137.316406 39.007812 "/>
</g>
<path style=" stroke:none;fill-rule:nonzero;fill:rgb(13.72549%,12.156863%,12.54902%);fill-opacity:1;" d="M 131.105469 50.703125 L 138.648438 48.90625 C 136.921875 44.097656 133.375 17.589844 139.648438 3.347656 L 137.558594 2.023438 C 134.46875 4.953125 125.015625 18.632812 131.105469 50.703125 Z M 131.105469 50.703125 "/>
<g clip-path="url(#clip2)" clip-rule="nonzero">
<path style="fill:none;stroke-width:22.764;stroke-linecap:butt;stroke-linejoin:miter;stroke:rgb(100%,100%,100%);stroke-opacity:1;stroke-dasharray:72.319,72.319;stroke-dashoffset:72.2757;stroke-miterlimit:10;" d="M 3320.722263 36.818258 C 3290.239221 209.912087 3206.217925 797.798971 3405.997608 1145.752893 " transform="matrix(0.0404938,0,0,-0.0420202,0,52.058829)"/>
</g>
</g>
</svg>
